<?xml version="1.0" encoding="UTF-8"?>
<!DOCTYPE score-partwise PUBLIC
    "-//Recordare//DTD MusicXML 3.1 Partwise//EN"
    "http://www.musicxml.org/dtds/partwise.dtd">
<score-partwise version="3.1">
  <part-list>
    <score-part id="P1">
      <part-name>Guitar</part-name>
    </score-part>
  </part-list>
  <part id="P1">
    <!-- Measures 1-4: Normal notes -->
    <measure number="1">
      <attributes>
        <divisions>1</divisions>
        <key>
          <fifths>0</fifths>
        </key>
        <time>
          <beats>4</beats>
          <beat-type>4</beat-type>
        </time>
        <clef>
          <sign>TAB</sign>
          <line>5</line>
        </clef>
        <staff-details>
          <staff-lines>6</staff-lines>
          <staff-tuning line="1">
            <tuning-step>E</tuning-step>
            <tuning-octave>4</tuning-octave>
          </staff-tuning>
          <staff-tuning line="2">
            <tuning-step>B</tuning-step>
            <tuning-octave>3</tuning-octave>
          </staff-tuning>
          <staff-tuning line="3">
            <tuning-step>G</tuning-step>
            <tuning-octave>3</tuning-octave>
          </staff-tuning>
          <staff-tuning line="4">
            <tuning-step>D</tuning-step>
            <tuning-octave>3</tuning-octave>
          </staff-tuning>
          <staff-tuning line="5">
            <tuning-step>A</tuning-step>
            <tuning-octave>2</tuning-octave>
          </staff-tuning>
          <staff-tuning line="6">
            <tuning-step>E</tuning-step>
            <tuning-octave>2</tuning-octave>
          </staff-tuning>
        </staff-details>
      </attributes>
      <!-- Note: Open low E string -->
      <note>
        <pitch>
          <step>E</step>
          <octave>2</octave>
        </pitch>
        <duration>4</duration>
        <voice>1</voice>
        <type>whole</type>
        <notations>
          <technical>
            <string>6</string>
            <fret>0</fret>
          </technical>
        </notations>
      </note>
    </measure>

    <!-- Measure 2 -->
    <measure number="2">
      <!-- Note: A on string 5, fret 0 -->
      <note>
        <pitch>
          <step>A</step>
          <octave>2</octave>
        </pitch>
        <duration>4</duration>
        <voice>1</voice>
        <type>whole</type>
        <notations>
          <technical>
            <string>5</string>
            <fret>0</fret>
          </technical>
        </notations>
      </note>
    </measure>

    <!-- Measure 3 -->
    <measure number="3">
      <!-- Note: D on string 4, fret 0 -->
      <note>
        <pitch>
          <step>D</step>
          <octave>3</octave>
        </pitch>
        <duration>4</duration>
        <voice>1</voice>
        <type>whole</type>
        <notations>
          <technical>
            <string>4</string>
            <fret>0</fret>
          </technical>
        </notations>
      </note>
    </measure>

    <!-- Measure 4 -->
    <measure number="4">
      <!-- Note: G on string 3, fret 0 -->
      <note>
        <pitch>
          <step>G</step>
          <octave>3</octave>
        </pitch>
        <duration>4</duration>
        <voice>1</voice>
        <type>whole</type>
        <notations>
          <technical>
            <string>3</string>
            <fret>0</fret>
          </technical>
        </notations>
      </note>
    </measure>

    <!-- Measures 5-8: Including hammer-ons -->
    <!-- Measure 5 -->
    <measure number="5">
      <!-- Note 1: Open A string -->
      <note>
        <pitch>
          <step>A</step>
          <octave>2</octave>
        </pitch>
        <duration>2</duration>
        <voice>1</voice>
        <type>half</type>
        <notations>
          <technical>
            <string>5</string>
            <fret>0</fret>
          </technical>
        </notations>
      </note>
      <!-- Note 2: Hammer-on to B -->
      <note>
        <pitch>
          <step>B</step>
          <octave>2</octave>
        </pitch>
        <duration>2</duration>
        <voice>1</voice>
        <type>half</type>
        <notations>
          <technical>
            <hammer-on type="start">H</hammer-on>
            <string>5</string>
            <fret>2</fret>
          </technical>
        </notations>
      </note>
    </measure>

    <!-- Measure 6 -->
    <measure number="6">
      <!-- Note 1: Open D string -->
      <note>
        <pitch>
          <step>D</step>
          <octave>3</octave>
        </pitch>
        <duration>2</duration>
        <voice>1</voice>
        <type>half</type>
        <notations>
          <technical>
            <string>4</string>
            <fret>0</fret>
          </technical>
        </notations>
      </note>
      <!-- Note 2: Hammer-on to E -->
      <note>
        <pitch>
          <step>E</step>
          <octave>3</octave>
        </pitch>
        <duration>2</duration>
        <voice>1</voice>
        <type>half</type>
        <notations>
          <technical>
            <hammer-on type="start">H</hammer-on>
            <string>4</string>
            <fret>2</fret>
          </technical>
        </notations>
      </note>
    </measure>

    <!-- Measure 7 -->
    <measure number="7">
      <!-- Note 1: Open G string -->
      <note>
        <pitch>
          <step>G</step>
          <octave>3</octave>
        </pitch>
        <duration>2</duration>
        <voice>1</voice>
        <type>half</type>
        <notations>
          <technical>
            <string>3</string>
            <fret>0</fret>
          </technical>
        </notations>
      </note>
      <!-- Note 2: Hammer-on to A -->
      <note>
        <pitch>
          <step>A</step>
          <octave>3</octave>
        </pitch>
        <duration>2</duration>
        <voice>1</voice>
        <type>half</type>
        <notations>
          <technical>
            <hammer-on type="start">H</hammer-on>
            <string>3</string>
            <fret>2</fret>
          </technical>
        </notations>
      </note>
    </measure>

    <!-- Measure 8 -->
    <measure number="8">
      <!-- Note 1: Open B string -->
      <note>
        <pitch>
          <step>B</step>
          <octave>3</octave>
        </pitch>
        <duration>2</duration>
        <voice>1</voice>
        <type>half</type>
        <notations>
          <technical>
            <string>2</string>
            <fret>0</fret>
          </technical>
        </notations>
      </note>
      <!-- Note 2: Hammer-on to C -->
      <note>
        <pitch>
          <step>C</step>
          <octave>4</octave>
        </pitch>
        <duration>2</duration>
        <voice>1</voice>
        <type>half</type>
        <notations>
          <technical>
            <hammer-on type="start">H</hammer-on>
            <string>2</string>
            <fret>1</fret>
          </technical>
        </notations>
      </note>
    </measure>

    <!-- Measures 9-12: Including pull-offs -->
    <!-- Measure 9 -->
    <measure number="9">
      <!-- Note 1: G on string 6, fret 3 -->
      <note>
        <pitch>
          <step>G</step>
          <octave>2</octave>
        </pitch>
        <duration>2</duration>
        <voice>1</voice>
        <type>half</type>
        <notations>
          <technical>
            <string>6</string>
            <fret>3</fret>
          </technical>
        </notations>
      </note>
      <!-- Note 2: Pull-off to E -->
      <note>
        <pitch>
          <step>E</step>
          <octave>2</octave>
        </pitch>
        <duration>2</duration>
        <voice>1</voice>
        <type>half</type>
        <notations>
          <technical>
            <pull-off type="start">P</pull-off>
            <string>6</string>
            <fret>0</fret>
          </technical>
        </notations>
      </note>
    </measure>

    <!-- Measure 10 -->
    <measure number="10">
      <!-- Note 1: E on string 4, fret 2 -->
      <note>
        <pitch>
          <step>E</step>
          <octave>3</octave>
        </pitch>
        <duration>2</duration>
        <voice>1</voice>
        <type>half</type>
        <notations>
          <technical>
            <string>4</string>
            <fret>2</fret>
          </technical>
        </notations>
      </note>
      <!-- Note 2: Pull-off to D -->
      <note>
        <pitch>
          <step>D</step>
          <octave>3</octave>
        </pitch>
        <duration>2</duration>
        <voice>1</voice>
        <type>half</type>
        <notations>
          <technical>
            <pull-off type="start">P</pull-off>
            <string>4</string>
            <fret>0</fret>
          </technical>
        </notations>
      </note>
    </measure>

    <!-- Measure 11 -->
    <measure number="11">
      <!-- Note 1: A on string 3, fret 2 -->
      <note>
        <pitch>
          <step>A</step>
          <octave>3</octave>
        </pitch>
        <duration>2</duration>
        <voice>1</voice>
        <type>half</type>
        <notations>
          <technical>
            <string>3</string>
            <fret>2</fret>
          </technical>
        </notations>
      </note>
      <!-- Note 2: Pull-off to G -->
      <note>
        <pitch>
          <step>G</step>
          <octave>3</octave>
        </pitch>
        <duration>2</duration>
        <voice>1</voice>
        <type>half</type>
        <notations>
          <technical>
            <pull-off type="start">P</pull-off>
            <string>3</string>
            <fret>0</fret>
          </technical>
        </notations>
      </note>
    </measure>

    <!-- Measure 12 -->
    <measure number="12">
      <!-- Note 1: C on string 2, fret 1 -->
      <note>
        <pitch>
          <step>C</step>
          <octave>4</octave>
        </pitch>
        <duration>2</duration>
        <voice>1</voice>
        <type>half</type>
        <notations>
          <technical>
            <string>2</string>
            <fret>1</fret>
          </technical>
        </notations>
      </note>
      <!-- Note 2: Pull-off to B -->
      <note>
        <pitch>
          <step>B</step>
          <octave>3</octave>
        </pitch>
        <duration>2</duration>
        <voice>1</voice>
        <type>half</type>
        <notations>
          <technical>
            <pull-off type="start">P</pull-off>
            <string>2</string>
            <fret>0</fret>
          </technical>
        </notations>
      </note>
    </measure>

    <!-- Measures 13-16: Mix of techniques -->
    <!-- Measure 13 -->
    <measure number="13">
      <!-- Note 1: Open E string -->
      <note>
        <pitch>
          <step>E</step>
          <octave>4</octave>
        </pitch>
        <duration>1</duration>
        <voice>1</voice>
        <type>quarter</type>
        <notations>
          <technical>
            <string>1</string>
            <fret>0</fret>
          </technical>
        </notations>
      </note>
      <!-- Note 2: Hammer-on to F -->
      <note>
        <pitch>
          <step>F</step>
          <octave>4</octave>
        </pitch>
        <duration>1</duration>
        <voice>1</voice>
        <type>quarter</type>
        <notations>
          <technical>
            <hammer-on type="start">H</hammer-on>
            <string>1</string>
            <fret>1</fret>
          </technical>
        </notations>
      </note>
      <!-- Note 3: G on string 1, fret 3 -->
      <note>
        <pitch>
          <step>G</step>
          <octave>4</octave>
        </pitch>
        <duration>1</duration>
        <voice>1</voice>
        <type>quarter</type>
        <notations>
          <technical>
            <string>1</string>
            <fret>3</fret>
          </technical>
        </notations>
      </note>
      <!-- Note 4: Pull-off to F -->
      <note>
        <pitch>
          <step>F</step>
          <octave>4</octave>
        </pitch>
        <duration>1</duration>
        <voice>1</voice>
        <type>quarter</type>
        <notations>
          <technical>
            <pull-off type="start">P</pull-off>
            <string>1</string>
            <fret>1</fret>
          </technical>
        </notations>
      </note>
    </measure>

    <!-- Measure 14 -->
    <measure number="14">
      <!-- Note: Chord without techniques -->
      <note>
        <chord/>
        <pitch>
          <step>C</step>
          <octave>3</octave>
        </pitch>
        <duration>4</duration>
        <voice>1</voice>
        <type>whole</type>
        <notations>
          <technical>
            <string>5</string>
            <fret>3</fret>
          </technical>
        </notations>
      </note>
      <note>
        <chord/>
        <pitch>
          <step>E</step>
          <octave>3</octave>
        </pitch>
        <duration>4</duration>
        <voice>1</voice>
        <type>whole</type>
        <notations>
          <technical>
            <string>4</string>
            <fret>2</fret>
          </technical>
        </notations>
      </note>
      <note>
        <chord/>
        <pitch>
          <step>G</step>
          <octave>3</octave>
        </pitch>
        <duration>4</duration>
        <voice>1</voice>
        <type>whole</type>
        <notations>
          <technical>
            <string>3</string>
            <fret>0</fret>
          </technical>
        </notations>
      </note>
    </measure>

    <!-- Measure 15 -->
    <measure number="15">
      <!-- Note 1: B on string 2, fret 0 -->
      <note>
        <pitch>
          <step>B</step>
          <octave>3</octave>
        </pitch>
        <duration>2</duration>
        <voice>1</voice>
        <type>half</type>
        <notations>
          <technical>
            <string>2</string>
            <fret>0</fret>
          </technical>
        </notations>
      </note>
      <!-- Note 2: Hammer-on to C -->
      <note>
        <pitch>
          <step>C</step>
          <octave>4</octave>
        </pitch>
        <duration>2</duration>
        <voice>1</voice>
        <type>half</type>
        <notations>
          <technical>
            <hammer-on type="start">H</hammer-on>
            <string>2</string>
            <fret>1</fret>
          </technical>
        </notations>
      </note>
    </measure>

    <!-- Measure 16 -->
    <measure number="16">
      <!-- Note: Open high E string -->
      <note>
        <pitch>
          <step>E</step>
          <octave>4</octave>
        </pitch>
        <duration>4</duration>
        <voice>1</voice>
        <type>whole</type>
        <notations>
          <technical>
            <string>1</string>
            <fret>0</fret>
          </technical>
        </notations>
      </note>
    </measure>
  </part>
</score-partwise>
